<svg width="488" height="830" viewBox="0 0 488 830" fill="none" xmlns="http://www.w3.org/2000/svg">
<path d="M121.221 111.705L378.492 320.671L121.221 509.554L375.107 715.813L370.819 721.003L110.163 509.328L367.434 320.446L110.163 111.479" fill="#969696"/>
<path opacity="0.3" d="M372.85 607.042C309.41 607.042 257.981 656.953 257.981 718.521C257.981 780.089 309.41 830 372.85 830C436.29 830 487.719 780.089 487.719 718.521C487.719 656.953 436.291 607.042 372.85 607.042Z" fill="url(#paint0_radial_11_41)"/>
<path opacity="0.3" d="M115.579 397.849C52.1388 397.849 0.710101 447.76 0.710096 509.328C0.71009 570.897 52.1388 620.807 115.579 620.807C179.02 620.807 230.448 570.897 230.448 509.328C230.448 447.76 179.02 397.849 115.579 397.849Z" fill="url(#paint1_radial_11_41)"/>
<path opacity="0.3" d="M372.85 206.033C309.41 206.033 257.981 255.944 257.981 317.512C257.981 379.08 309.41 428.991 372.85 428.991C436.291 428.991 487.719 379.08 487.719 317.512C487.719 255.944 436.291 206.033 372.85 206.033Z" fill="url(#paint2_radial_11_41)"/>
<path opacity="0.3" d="M115.579 5.21661e-06C52.1388 -3.29534e-07 0.710106 49.9109 0.7101 111.479C0.710095 173.047 52.1388 222.958 115.579 222.958C179.02 222.958 230.448 173.047 230.448 111.479C230.448 49.9109 179.02 1.07628e-05 115.579 5.21661e-06Z" fill="url(#paint3_radial_11_41)"/>
<path d="M372.85 610.201C313.024 610.201 264.525 658.698 264.525 718.521C264.525 778.344 313.024 826.841 372.85 826.841C432.676 826.841 481.175 778.344 481.175 718.521C481.175 658.698 432.676 610.201 372.85 610.201Z" fill="#2A4EFC"/>
<path d="M384.134 617.874C337.644 617.874 299.957 654.448 299.957 699.565C299.957 744.682 337.644 781.256 384.134 781.256C430.624 781.256 468.311 744.682 468.311 699.565C468.311 654.448 430.624 617.874 384.134 617.874Z" fill="url(#paint4_radial_11_41)"/>
<path d="M372.85 642.02C330.598 642.02 296.346 676.271 296.346 718.521C296.346 760.771 330.598 795.022 372.85 795.022C415.102 795.022 449.354 760.771 449.354 718.521C449.354 676.271 415.102 642.02 372.85 642.02Z" fill="url(#paint5_linear_11_41)"/>
<path d="M372.85 655.56C338.076 655.56 309.886 683.749 309.886 718.521C309.886 753.293 338.076 781.482 372.85 781.482C407.624 781.482 435.814 753.293 435.814 718.521C435.814 683.749 407.624 655.56 372.85 655.56Z" fill="url(#paint6_linear_11_41)"/>
<path d="M115.579 401.009C55.7533 401.009 7.25475 449.505 7.25474 509.328C7.25474 569.152 55.7533 617.648 115.579 617.648C175.405 617.648 223.904 569.152 223.904 509.328C223.904 449.505 175.405 401.009 115.579 401.009Z" fill="#2A4EFC"/>
<path d="M126.863 408.681C80.3733 408.681 42.6859 445.256 42.6859 490.372C42.6859 535.489 80.3733 572.064 126.863 572.064C173.353 572.064 211.04 535.489 211.04 490.372C211.04 445.256 173.353 408.681 126.863 408.681Z" fill="url(#paint7_radial_11_41)"/>
<path d="M115.579 432.828C73.3272 432.828 39.0751 467.078 39.075 509.328C39.075 551.579 73.3272 585.829 115.579 585.829C157.831 585.829 192.083 551.579 192.083 509.328C192.083 467.078 157.831 432.828 115.579 432.828Z" fill="url(#paint8_linear_11_41)"/>
<path d="M115.579 446.367C80.8054 446.367 52.6156 474.556 52.6156 509.328C52.6156 544.101 80.8054 572.289 115.579 572.289C150.353 572.289 178.543 544.101 178.543 509.328C178.543 474.556 150.353 446.367 115.579 446.367Z" fill="url(#paint9_linear_11_41)"/>
<path d="M372.85 212.352C313.024 212.352 264.526 260.848 264.526 320.671C264.526 380.495 313.024 428.991 372.85 428.991C432.676 428.991 481.175 380.495 481.175 320.671C481.175 260.848 432.676 212.352 372.85 212.352Z" fill="#2A4EFC"/>
<path d="M384.134 219.799C337.644 219.799 299.957 256.373 299.957 301.49C299.957 346.607 337.644 383.181 384.134 383.181C430.624 383.181 468.311 346.607 468.311 301.49C468.311 256.373 430.624 219.799 384.134 219.799Z" fill="url(#paint10_radial_11_41)"/>
<path d="M372.85 244.171C330.598 244.171 296.346 278.421 296.346 320.672C296.346 362.922 330.598 397.172 372.85 397.172C415.102 397.172 449.354 362.922 449.354 320.672C449.354 278.421 415.102 244.171 372.85 244.171Z" fill="url(#paint11_linear_11_41)"/>
<path d="M372.85 257.711C338.076 257.711 309.886 285.899 309.886 320.671C309.886 355.444 338.076 383.632 372.85 383.632C407.624 383.632 435.814 355.444 435.814 320.671C435.814 285.899 407.624 257.711 372.85 257.711Z" fill="url(#paint12_linear_11_41)"/>
<path d="M115.579 3.15923C55.7533 3.15923 7.25478 51.6556 7.25478 111.479C7.25477 171.302 55.7533 219.799 115.579 219.799C175.405 219.799 223.904 171.302 223.904 111.479C223.904 51.6556 175.405 3.15924 115.579 3.15923Z" fill="#2A4EFC"/>
<path d="M126.863 10.832C80.3734 10.832 42.686 47.4064 42.686 92.5231C42.6859 137.64 80.3734 174.214 126.863 174.214C173.353 174.214 211.04 137.64 211.04 92.5231C211.04 47.4064 173.353 10.832 126.863 10.832Z" fill="url(#paint13_radial_11_41)"/>
<path d="M115.579 34.9782C73.3272 34.9782 39.0751 69.2288 39.0751 111.479C39.0751 153.729 73.3272 187.98 115.579 187.98C157.831 187.98 192.084 153.729 192.084 111.479C192.084 69.2288 157.831 34.9783 115.579 34.9782Z" fill="url(#paint14_linear_11_41)"/>
<path d="M115.579 48.5181C80.8055 48.5181 52.6157 76.7067 52.6157 111.479C52.6157 146.251 80.8055 174.44 115.579 174.44C150.353 174.44 178.543 146.251 178.543 111.479C178.543 76.7067 150.353 48.5181 115.579 48.5181Z" fill="url(#paint15_linear_11_41)"/>
<defs>
<radialGradient id="paint0_radial_11_41" cx="0" cy="0" r="1" gradientUnits="userSpaceOnUse" gradientTransform="translate(372.87 718.467) rotate(-180) scale(114.853 111.529)">
<stop stop-color="#969696"/>
<stop offset="1" stop-color="#969696" stop-opacity="0"/>
</radialGradient>
<radialGradient id="paint1_radial_11_41" cx="0" cy="0" r="1" gradientUnits="userSpaceOnUse" gradientTransform="translate(115.612 509.408) rotate(-180) scale(114.853 111.529)">
<stop stop-color="#969696"/>
<stop offset="1" stop-color="#969696" stop-opacity="0"/>
</radialGradient>
<radialGradient id="paint2_radial_11_41" cx="0" cy="0" r="1" gradientUnits="userSpaceOnUse" gradientTransform="translate(372.87 317.422) rotate(-180) scale(114.853 111.529)">
<stop stop-color="#969696"/>
<stop offset="1" stop-color="#969696" stop-opacity="0"/>
</radialGradient>
<radialGradient id="paint3_radial_11_41" cx="0" cy="0" r="1" gradientUnits="userSpaceOnUse" gradientTransform="translate(115.612 111.516) rotate(-180) scale(114.853 111.529)">
<stop stop-color="#969696"/>
<stop offset="1" stop-color="#969696" stop-opacity="0"/>
</radialGradient>
<radialGradient id="paint4_radial_11_41" cx="0" cy="0" r="1" gradientUnits="userSpaceOnUse" gradientTransform="translate(384.182 699.493) rotate(-180) scale(84.1397 81.7051)">
<stop stop-color="#6B4D36"/>
<stop offset="0.2079" stop-color="#704D36" stop-opacity="0.7921"/>
<stop offset="0.4526" stop-color="#7E4D36" stop-opacity="0.5474"/>
<stop offset="0.7159" stop-color="#964D36" stop-opacity="0.2841"/>
<stop offset="0.9907" stop-color="#B74D36" stop-opacity="0.01"/>
<stop offset="1" stop-color="#B84D36" stop-opacity="0"/>
</radialGradient>
<linearGradient id="paint5_linear_11_41" x1="449.301" y1="718.467" x2="296.439" y2="718.467" gradientUnits="userSpaceOnUse">
<stop stop-color="white"/>
<stop offset="0.1755" stop-color="#F2F2F2"/>
<stop offset="0.7093" stop-color="#D1D1D1"/>
<stop offset="1" stop-color="#C4C4C4"/>
</linearGradient>
<linearGradient id="paint6_linear_11_41" x1="435.852" y1="718.468" x2="309.888" y2="718.468" gradientUnits="userSpaceOnUse">
<stop stop-color="#C4C4C4"/>
<stop offset="0.2907" stop-color="#D1D1D1"/>
<stop offset="0.8245" stop-color="#F2F2F2"/>
<stop offset="1" stop-color="white"/>
</linearGradient>
<radialGradient id="paint7_radial_11_41" cx="0" cy="0" r="1" gradientUnits="userSpaceOnUse" gradientTransform="translate(126.925 490.433) rotate(-180) scale(84.1397 81.7051)">
<stop stop-color="#6B4D36"/>
<stop offset="0.2079" stop-color="#704D36" stop-opacity="0.7921"/>
<stop offset="0.4526" stop-color="#7E4D36" stop-opacity="0.5474"/>
<stop offset="0.7159" stop-color="#964D36" stop-opacity="0.2841"/>
<stop offset="0.9907" stop-color="#B74D36" stop-opacity="0.01"/>
<stop offset="1" stop-color="#B84D36" stop-opacity="0"/>
</radialGradient>
<linearGradient id="paint8_linear_11_41" x1="192.044" y1="509.407" x2="39.1811" y2="509.407" gradientUnits="userSpaceOnUse">
<stop stop-color="white"/>
<stop offset="0.1755" stop-color="#F2F2F2"/>
<stop offset="0.7093" stop-color="#D1D1D1"/>
<stop offset="1" stop-color="#C4C4C4"/>
</linearGradient>
<linearGradient id="paint9_linear_11_41" x1="178.594" y1="509.407" x2="52.6305" y2="509.407" gradientUnits="userSpaceOnUse">
<stop stop-color="#C4C4C4"/>
<stop offset="0.2907" stop-color="#D1D1D1"/>
<stop offset="0.8245" stop-color="#F2F2F2"/>
<stop offset="1" stop-color="white"/>
</linearGradient>
<radialGradient id="paint10_radial_11_41" cx="0" cy="0" r="1" gradientUnits="userSpaceOnUse" gradientTransform="translate(384.182 301.602) rotate(-180) scale(84.1397 81.7051)">
<stop stop-color="#6B4D36"/>
<stop offset="0.2079" stop-color="#704D36" stop-opacity="0.7921"/>
<stop offset="0.4526" stop-color="#7E4D36" stop-opacity="0.5474"/>
<stop offset="0.7159" stop-color="#964D36" stop-opacity="0.2841"/>
<stop offset="0.9907" stop-color="#B74D36" stop-opacity="0.01"/>
<stop offset="1" stop-color="#B84D36" stop-opacity="0"/>
</radialGradient>
<linearGradient id="paint11_linear_11_41" x1="449.301" y1="320.576" x2="296.439" y2="320.576" gradientUnits="userSpaceOnUse">
<stop stop-color="white"/>
<stop offset="0.1755" stop-color="#F2F2F2"/>
<stop offset="0.7093" stop-color="#D1D1D1"/>
<stop offset="1" stop-color="#C4C4C4"/>
</linearGradient>
<linearGradient id="paint12_linear_11_41" x1="435.852" y1="320.576" x2="309.888" y2="320.576" gradientUnits="userSpaceOnUse">
<stop stop-color="#C4C4C4"/>
<stop offset="0.2907" stop-color="#D1D1D1"/>
<stop offset="0.8245" stop-color="#F2F2F2"/>
<stop offset="1" stop-color="white"/>
</linearGradient>
<radialGradient id="paint13_radial_11_41" cx="0" cy="0" r="1" gradientUnits="userSpaceOnUse" gradientTransform="translate(126.925 92.5417) rotate(-180) scale(84.1397 81.7051)">
<stop stop-color="#6B4D36"/>
<stop offset="0.2079" stop-color="#704D36" stop-opacity="0.7921"/>
<stop offset="0.4526" stop-color="#7E4D36" stop-opacity="0.5474"/>
<stop offset="0.7159" stop-color="#964D36" stop-opacity="0.2841"/>
<stop offset="0.9907" stop-color="#B74D36" stop-opacity="0.01"/>
<stop offset="1" stop-color="#B84D36" stop-opacity="0"/>
</radialGradient>
<linearGradient id="paint14_linear_11_41" x1="192.044" y1="111.516" x2="39.1812" y2="111.516" gradientUnits="userSpaceOnUse">
<stop stop-color="white"/>
<stop offset="0.1755" stop-color="#F2F2F2"/>
<stop offset="0.7093" stop-color="#D1D1D1"/>
<stop offset="1" stop-color="#C4C4C4"/>
</linearGradient>
<linearGradient id="paint15_linear_11_41" x1="178.594" y1="111.516" x2="52.6306" y2="111.516" gradientUnits="userSpaceOnUse">
<stop stop-color="#C4C4C4"/>
<stop offset="0.2907" stop-color="#D1D1D1"/>
<stop offset="0.8245" stop-color="#F2F2F2"/>
<stop offset="1" stop-color="white"/>
</linearGradient>
</defs>
</svg>
